<svg width="1114" height="344" viewBox="0 0 1114 344" fill="none" xmlns="http://www.w3.org/2000/svg">
<mask id="path-1-inside-1_131_26" fill="white">
<path fill-rule="evenodd" clip-rule="evenodd" d="M11.7157 12.123C0 23.8387 0 42.6949 0 80.4072V216.785C0 254.498 0 273.354 11.7157 285.069C23.4315 296.785 42.2876 296.785 80 296.785H113.62V343.066L159.901 296.785H1034C1071.71 296.785 1090.57 296.785 1102.28 285.069C1114 273.354 1114 254.498 1114 216.785V80.4072C1114 42.6949 1114 23.8387 1102.28 12.123C1090.57 0.407227 1071.71 0.407227 1034 0.407227H80C42.2876 0.407227 23.4315 0.407227 11.7157 12.123Z"/>
</mask>
<path d="M113.62 296.785H116.62V293.785H113.62V296.785ZM113.62 343.066H110.62V350.309L115.741 345.187L113.62 343.066ZM159.901 296.785V293.785H158.658L157.78 294.664L159.901 296.785ZM3 80.4072C3 61.4662 3.00637 47.5623 4.43771 36.9161C5.85745 26.3562 8.62949 19.4518 13.837 14.2443L9.59441 10.0016C3.08624 16.5098 0.00040955 24.8914 -1.50878 36.1166C-3.00637 47.2555 -3 61.6359 -3 80.4072H3ZM3 216.785V80.4072H-3V216.785H3ZM13.837 282.948C8.62949 277.741 5.85745 270.836 4.43771 260.276C3.00637 249.63 3 235.726 3 216.785H-3C-3 235.557 -3.00637 249.937 -1.50878 261.076C0.000409541 272.301 3.08624 280.683 9.59441 287.191L13.837 282.948ZM80 293.785C61.059 293.785 47.1551 293.779 36.5089 292.347C25.949 290.928 19.0446 288.156 13.837 282.948L9.59441 287.191C16.1026 293.699 24.4842 296.785 35.7094 298.294C46.8483 299.792 61.2286 299.785 80 299.785V293.785ZM113.62 293.785H80V299.785H113.62V293.785ZM116.62 343.066V296.785H110.62V343.066H116.62ZM157.78 294.664L111.499 340.945L115.741 345.187L162.022 298.906L157.78 294.664ZM1034 293.785H159.901V299.785H1034V293.785ZM1100.16 282.948C1094.96 288.156 1088.05 290.928 1077.49 292.347C1066.84 293.779 1052.94 293.785 1034 293.785V299.785C1052.77 299.785 1067.15 299.792 1078.29 298.294C1089.52 296.785 1097.9 293.699 1104.41 287.191L1100.16 282.948ZM1111 216.785C1111 235.726 1110.99 249.63 1109.56 260.276C1108.14 270.836 1105.37 277.741 1100.16 282.948L1104.41 287.191C1110.91 280.683 1114 272.301 1115.51 261.076C1117.01 249.937 1117 235.557 1117 216.785H1111ZM1111 80.4072V216.785H1117V80.4072H1111ZM1100.16 14.2443C1105.37 19.4518 1108.14 26.3562 1109.56 36.9161C1110.99 47.5623 1111 61.4662 1111 80.4072H1117C1117 61.6359 1117.01 47.2555 1115.51 36.1166C1114 24.8914 1110.91 16.5098 1104.41 10.0016L1100.16 14.2443ZM1034 3.40723C1052.94 3.40723 1066.84 3.4136 1077.49 4.84494C1088.05 6.26468 1094.96 9.03672 1100.16 14.2443L1104.41 10.0016C1097.9 3.49346 1089.52 0.407636 1078.29 -1.10156C1067.15 -2.59914 1052.77 -2.59277 1034 -2.59277V3.40723ZM80 3.40723H1034V-2.59277H80V3.40723ZM13.837 14.2443C19.0446 9.03672 25.949 6.26468 36.5089 4.84494C47.1551 3.4136 61.059 3.40723 80 3.40723V-2.59277C61.2286 -2.59277 46.8483 -2.59914 35.7094 -1.10156C24.4842 0.407636 16.1026 3.49346 9.59441 10.0016L13.837 14.2443Z" fill="#EDF3FA" mask="url(#path-1-inside-1_131_26)"/>
</svg>
