<svg width="33" height="33" viewBox="0 0 33 33" fill="none" xmlns="http://www.w3.org/2000/svg">
<g id="twemoji:flag-russia" clip-path="url(#clip0_159_4578)">
<path id="Vector" d="M32.8047 24.4999C32.8047 25.4429 32.4301 26.3473 31.7633 27.014C31.0965 27.6808 30.1921 28.0554 29.2491 28.0554H4.36024C3.41725 28.0554 2.51288 27.6808 1.84609 27.014C1.17929 26.3473 0.804688 25.4429 0.804688 24.4999V20.9443H32.8047V24.4999Z" fill="#CE2028"/>
<path id="Vector_2" d="M0.804688 12.0557H32.8047V20.9446H0.804688V12.0557Z" fill="#22408C"/>
<path id="Vector_3" d="M29.2491 4.94434H4.36024C3.41725 4.94434 2.51288 5.31894 1.84609 5.98573C1.17929 6.65253 0.804688 7.5569 0.804688 8.49989L0.804688 12.0554H32.8047V8.49989C32.8047 7.5569 32.4301 6.65253 31.7633 5.98573C31.0965 5.31894 30.1921 4.94434 29.2491 4.94434Z" fill="#EEEEEE"/>
</g>
<defs>
<clipPath id="clip0_159_4578">
<rect width="32" height="32" fill="white" transform="translate(0.804688 0.5)"/>
</clipPath>
</defs>
</svg>
