<svg width="99" height="187" viewBox="0 0 99 187" fill="none" xmlns="http://www.w3.org/2000/svg">
<g id="&#208;&#156;&#208;&#190;&#208;&#189;&#208;&#181;&#209;&#130;&#209;&#139;">
<g id="Group">
<path id="Vector" d="M1.82636 119.872C1.80106 119.636 1.80771 119.398 1.84016 119.161C1.86175 118.989 1.90301 118.821 1.96024 118.653L2.14344 117.889L2.32165 117.907C4.02515 115.254 9.7986 113.488 16.855 113.735C25.3909 114.032 32.6454 117.155 33.2783 120.765L33.5277 120.79L33.2583 121.882C33.2499 121.937 33.2317 121.99 33.2195 122.039L33.2122 122.069C33.1369 122.332 33.0259 122.591 32.8718 122.835C31.236 125.531 25.4209 127.339 18.2847 127.099C9.58776 126.798 2.22481 123.565 1.8325 119.868L1.82636 119.872Z" fill="#CC003D"/>
<path id="Vector_2" d="M17.143 112.565C8.44607 112.264 1.71974 115.015 2.10834 118.706C2.49695 122.396 9.86353 125.635 18.5605 125.936C27.2574 126.237 33.9838 123.486 33.5952 119.795C33.2066 116.105 25.8399 112.865 17.143 112.565Z" fill="#D94668"/>
<path id="Vector_3" d="M18.42 124.909C14.7738 124.777 11.2844 124.074 8.58003 122.938C5.81539 121.772 4.19367 120.266 4.01681 118.699C3.92711 117.9 4.20739 117.145 4.84298 116.451C6.74248 114.399 11.5876 113.203 17.184 113.402C20.8302 113.534 24.3196 114.237 27.0178 115.376C29.7824 116.543 31.4041 118.048 31.581 119.615C31.6707 120.415 31.3904 121.17 30.7487 121.868C30.4143 122.229 29.9877 122.562 29.4787 122.87C27.1178 124.297 23.021 125.082 18.4077 124.916L18.42 124.909ZM5.24844 116.817C4.71569 117.39 4.48534 118.006 4.55856 118.64C4.71139 119.987 6.25895 121.37 8.8009 122.445C11.4425 123.56 14.8692 124.243 18.4478 124.373C22.9063 124.532 26.9785 123.761 29.2315 122.391C29.6915 122.113 30.0727 121.816 30.3715 121.493C30.9043 120.92 31.1346 120.304 31.0614 119.67C30.9086 118.323 29.3609 116.94 26.819 115.865C24.1774 114.75 20.7507 114.067 17.1721 113.937C12.7136 113.778 8.64146 114.548 6.38472 115.912C5.93092 116.187 5.54355 116.488 5.24473 116.811L5.24844 116.817Z" fill="#CC003D"/>
</g>
<g id="Group_2">
<path id="Vector_4" d="M66.7719 177.9C66.8193 177.759 66.8471 177.618 66.8566 177.473C66.8639 177.368 66.8629 177.261 66.8503 177.153L66.8415 176.669L66.7325 176.655C66.0602 174.84 62.8352 173.017 58.5698 172.23C53.4133 171.279 48.6522 172.195 47.7957 174.273L47.6439 174.253L47.6627 174.943C47.6619 174.977 47.6628 175.01 47.6653 175.044L47.6658 175.064L47.6691 175.067C47.6783 175.237 47.7138 175.405 47.769 175.573L47.7707 175.575C48.3942 177.411 51.6413 179.265 55.9546 180.059C61.2071 181.027 66.0507 180.059 66.7735 177.898L66.7719 177.9Z" fill="#CC003D"/>
<path id="Vector_5" d="M58.5505 171.492C63.8029 172.461 67.4752 174.998 66.7525 177.162C66.0298 179.326 61.1861 180.291 55.9337 179.322C50.6813 178.354 47.0089 175.816 47.7316 173.653C48.4543 171.489 53.2981 170.524 58.5505 171.492Z" fill="#D94668"/>
<path id="Vector_6" d="M49.7901 176.039C49.5271 175.789 49.3166 175.531 49.1636 175.269C48.8696 174.768 48.8031 174.278 48.9626 173.813C49.2771 172.898 50.4464 172.21 52.2582 171.876C54.0273 171.549 56.2138 171.591 58.4159 171.994C61.7967 172.613 64.541 173.969 65.4107 175.452C65.7046 175.953 65.7712 176.444 65.6117 176.908C65.2971 177.823 64.1278 178.512 62.3161 178.846C60.547 179.172 58.3605 179.131 56.1584 178.727C53.3744 178.217 51.0205 177.207 49.7916 176.037L49.7901 176.039ZM64.5633 174.928C63.3883 173.81 61.0528 172.808 58.3564 172.316C56.1924 171.92 54.0487 171.878 52.3173 172.198C50.653 172.506 49.5414 173.134 49.273 173.919C49.1441 174.291 49.205 174.689 49.4458 175.104C49.5816 175.336 49.7717 175.569 50.0077 175.793C51.1827 176.911 53.5182 177.914 56.2145 178.405C58.3786 178.801 60.5223 178.844 62.2537 178.523C63.918 178.216 65.0296 177.588 65.298 176.803C65.4269 176.431 65.366 176.032 65.1252 175.617C64.9894 175.385 64.7993 175.153 64.5633 174.928Z" fill="#CC003D"/>
</g>
<g id="Group_3">
<path id="Vector_7" d="M96.7564 74.3851C96.811 74.1419 96.8335 73.9074 96.8269 73.6671C96.8233 73.4878 96.801 73.3109 96.7654 73.1405L96.67 72.3439L96.4896 72.3381C95.0768 69.4512 89.4458 66.9749 82.2687 66.3805C73.5912 65.6621 65.8756 67.9674 64.8027 71.5442L64.5466 71.5384L64.6894 72.6743C64.6965 72.7302 64.7035 72.786 64.7105 72.8419L64.714 72.8698L64.7193 72.8738C64.7637 73.152 64.8453 73.4255 64.9736 73.6931C66.3112 76.6225 71.9813 79.1459 79.2393 79.7444C88.0786 80.4709 95.9193 78.0695 96.7552 74.3758L96.7564 74.3851Z" fill="#CC003D"/>
<path id="Vector_8" d="M82.1085 65.1568C90.9477 65.8833 97.4374 69.4719 96.6014 73.1655C95.7655 76.8592 87.9248 79.2606 79.0855 78.5341C70.2463 77.8076 63.7566 74.219 64.5925 70.5253C65.4285 66.8317 73.2692 64.4303 82.1085 65.1568Z" fill="#D94668"/>
<path id="Vector_9" d="M68.3911 74.1292C67.9142 73.7587 67.52 73.3683 67.2281 72.9652C66.6572 72.1856 66.4675 71.3914 66.6549 70.5877C67.021 69.024 68.8445 67.6937 71.7775 66.839C74.6465 66.0018 78.2655 65.7136 81.9728 66.0148C87.6629 66.4789 92.4217 68.2607 94.1017 70.5656C94.6726 71.3451 94.8623 72.1394 94.6749 72.9431C94.3088 74.5068 92.4853 75.8371 89.5523 76.6918C86.6833 77.529 83.0643 77.8172 79.357 77.516C74.6702 77.1342 70.6131 75.8554 68.3911 74.1292ZM92.6154 69.8394C90.4878 68.1864 86.4609 66.9227 81.9266 66.5502C78.2909 66.2542 74.7383 66.5435 71.928 67.3592C69.2272 68.1422 67.4984 69.3613 67.1811 70.7109C67.0337 71.3441 67.1914 71.9957 67.6649 72.6409C67.9283 73.0051 68.2794 73.3535 68.7091 73.6874C70.8368 75.3404 74.8637 76.604 79.398 76.9765C83.0336 77.2725 86.5863 76.9832 89.3965 76.1676C92.0974 75.3845 93.8261 74.1654 94.1435 72.8158C94.2908 72.1827 94.1332 71.531 93.6596 70.8858C93.3963 70.5216 93.0452 70.1732 92.6154 69.8394Z" fill="#CC003D"/>
</g>
<g id="Group_4">
<path id="Vector_10" d="M10.1425 14.4268C10.1031 14.2493 10.0882 14.0723 10.0948 13.8982C10.1011 13.7678 10.1159 13.6357 10.1437 13.5082L10.2188 12.9193L10.3561 12.9155C11.4137 10.7909 15.5789 8.98875 20.8798 8.58602C27.2856 8.09936 32.9706 9.8364 33.7419 12.4811L33.9312 12.4761L33.8203 13.3145C33.8177 13.3552 33.812 13.3982 33.804 13.4382L33.8011 13.4597L33.7981 13.462C33.7626 13.6679 33.698 13.8672 33.6088 14.066C32.6098 16.2229 28.4104 18.0561 23.0513 18.4648C16.5237 18.9627 10.7474 17.1507 10.1486 14.4221L10.1425 14.4268Z" fill="#CC003D"/>
<path id="Vector_11" d="M20.9953 7.69109C14.4677 8.18902 9.66214 10.8009 10.261 13.5295C10.8599 16.2581 16.6362 18.0701 23.1638 17.5722C29.6913 17.0742 34.4969 14.4624 33.898 11.7338C33.2992 9.00515 27.5229 7.19315 20.9953 7.69109Z" fill="#D94668"/>
<path id="Vector_12" d="M22.9714 16.8211C20.2374 17.0237 17.5663 16.7917 15.451 16.1627C13.2856 15.5188 11.951 14.5279 11.6883 13.3722C11.5556 12.7832 11.699 12.1951 12.1248 11.6223C13.3771 9.9281 16.8981 8.63435 21.0987 8.32165C23.8327 8.11901 26.5037 8.35102 28.6191 8.98007C30.7844 9.62391 32.1191 10.6148 32.3818 11.7706C32.5145 12.3596 32.371 12.9477 31.9452 13.5205C31.7252 13.8196 31.433 14.1064 31.08 14.377C29.4306 15.6415 26.4287 16.5662 22.9707 16.8265L22.9714 16.8211ZM12.4463 11.8589C12.0962 12.3349 11.9731 12.8109 12.0807 13.279C12.3073 14.2741 13.5789 15.1829 15.5681 15.7734C17.6358 16.3907 20.2554 16.6187 22.9427 16.4181C26.2927 16.1682 29.2685 15.2537 30.8479 14.0429C31.1675 13.7979 31.4286 13.5398 31.6245 13.2785C31.9746 12.8024 32.0977 12.3265 31.9901 11.8584C31.7636 10.8632 30.4919 9.95445 28.5027 9.36392C26.432 8.74897 23.8154 8.51868 21.1281 8.71928C17.7781 8.96918 14.8022 9.88368 13.2228 11.0945C12.9033 11.3395 12.6422 11.5976 12.4463 11.8589Z" fill="#CC003D"/>
</g>
</g>
</svg>
