<svg width="59" height="54" viewBox="0 0 59 54" fill="none" xmlns="http://www.w3.org/2000/svg">
<g id="&#208;&#151;&#208;&#189;&#208;&#176;&#208;&#186;">
<g id="Group 6">
<g id="Group 3">
<path id="&#226;&#130;&#189;" d="M16.8492 17.1949H14.5312H14.3941V17.3321V19.4018V19.539L27.7091 17.0082M16.8492 17.1949V9.55884V9.42165H16.9864H22.8223C24.0567 9.42165 25.0979 9.64566 25.939 10.1018C26.7808 10.5555 27.4155 11.1686 27.8372 11.9417C28.2622 12.7112 28.4738 13.5663 28.4738 14.504C28.4738 15.4523 28.2596 16.3105 27.8288 17.0753M16.8492 17.1949H16.9864V17.3321L16.8492 17.1949ZM27.8288 17.0753C27.8287 17.0754 27.8287 17.0755 27.8286 17.0756L27.7091 17.0082M27.8288 17.0753C27.8288 17.0753 27.8288 17.0753 27.8288 17.0753L27.7091 17.0082M27.8288 17.0753C27.4015 17.838 26.7639 18.4404 25.9218 18.8834L25.9215 18.8835C25.081 19.3231 24.0458 19.539 22.8223 19.539H19.5395M27.7091 17.0082C27.296 17.7455 26.6789 18.3301 25.8579 18.7619C25.0422 19.1885 24.0303 19.4018 22.8223 19.4018H19.5395V19.539M19.5395 19.539V21.0143M19.5395 19.539H19.4024V21.0143H19.5395M16.8492 21.0143H14.5312H14.3941V21.1514V23.2291V23.3662H14.5312H16.8492V25.7374V25.8745H16.9864H19.4024H19.5395V25.7374V23.3662H22.94H23.0772V23.2291V21.1514V21.0143H22.94H19.5395M16.9864 19.4018H16.8492V19.539L16.9864 19.4018Z" fill="#4B9DFE" stroke="#4B9DFE" stroke-width="0.274379"/>
</g>
</g>
<path id="Subtract" fill-rule="evenodd" clip-rule="evenodd" d="M33.7569 22.2315C34.3573 20.7015 34.6875 19.0326 34.6875 17.2836C34.6875 9.83564 28.6987 3.83924 21.362 3.83924C14.0253 3.83924 8.0365 9.83564 8.0365 17.2836C8.0365 23.7178 12.5059 29.0687 18.4528 30.4062L14.3457 32.6C8.60231 29.9271 4.61719 24.074 4.61719 17.2836C4.61719 7.97006 12.1141 0.419922 21.362 0.419922C30.6099 0.419922 38.1068 7.97006 38.1068 17.2836C38.1068 18.2173 38.0315 19.1332 37.8866 20.0256L33.7569 22.2315Z" fill="#4B9DFE"/>
<path id="Subtract_2" fill-rule="evenodd" clip-rule="evenodd" d="M49.111 27.9326H40.7796V53.1437H49.111V27.9326ZM30.5326 33.4071H38.864V53.1437H30.5326V33.4071ZM28.6192 38.8874H20.2878V53.1437H28.6192V38.8874ZM18.3744 44.3403H10.043V53.1437H18.3744V44.3403Z" fill="#4B9DFE"/>
<g id="Group 2">
<rect id="Rectangle 5" width="3.47774" height="12.7219" transform="matrix(-0.955416 -0.295263 0.291469 -0.95658 54.5254 26.1378)" fill="#4B9DFE"/>
<rect id="Rectangle 6" width="3.49818" height="12.6476" transform="matrix(0.291469 -0.95658 0.955416 0.295263 45.1309 13.58)" fill="#4B9DFE"/>
<rect id="Rectangle 8" width="3.49489" height="62.2944" transform="matrix(-0.465974 -0.884799 0.882054 -0.471148 2.5625 45.6842)" fill="#4B9DFE"/>
</g>
</g>
</svg>
