<svg width="132" height="278" viewBox="0 0 132 278" fill="none" xmlns="http://www.w3.org/2000/svg">
<path d="M2.22461 251.37C2.2771 251.038 2.37201 250.726 2.49849 250.429C2.59637 250.208 2.71064 249.996 2.84552 249.793L3.37182 248.835L3.60837 248.923C6.85871 246.001 15.2195 245.736 24.5747 248.641C35.8839 252.15 44.4497 258.974 43.9801 264.034L44.3045 264.157L43.5437 265.517C43.5084 265.587 43.472 265.652 43.4312 265.719L43.41 265.757L43.4015 265.76C43.2052 266.086 42.9556 266.387 42.6677 266.666L42.6635 266.668C39.4901 269.683 31.0522 269.983 21.5921 267.049C10.0718 263.476 1.40009 256.457 2.22157 251.375L2.22461 251.37Z" fill="#CC003D"/>
<path d="M25.3906 247.183C13.8703 243.61 3.86196 244.83 3.03745 249.917C2.21173 255 10.8877 262.018 22.4081 265.591C33.9284 269.165 43.9367 267.944 44.7612 262.857C45.5869 257.774 36.9109 250.756 25.3906 247.183Z" fill="#D94668"/>
<path d="M22.5849 264.164C17.7615 262.659 13.3427 260.447 10.1437 257.938C6.87196 255.367 5.25408 252.766 5.58498 250.606C5.75408 249.507 6.40405 248.596 7.51553 247.903C10.8069 245.85 17.7198 246.016 25.133 248.326C29.9607 249.83 34.3751 252.043 37.5741 254.552C40.8459 257.123 42.4638 259.724 42.1329 261.884C41.9638 262.984 41.3138 263.894 40.2023 264.587C39.6213 264.95 38.9288 265.244 38.143 265.467C34.4601 266.516 28.6935 266.07 22.5849 264.164ZM7.90992 248.53C6.98965 249.104 6.45504 249.839 6.31951 250.718C6.03562 252.576 7.59613 254.991 10.603 257.358C13.7316 259.813 18.0642 261.981 22.8064 263.458C28.7136 265.302 34.4396 265.751 37.9611 264.748C38.6747 264.545 39.2932 264.281 39.8122 263.959C40.7325 263.385 41.267 262.65 41.4026 261.771C41.6865 259.913 40.126 257.498 37.1192 255.132C33.9905 252.676 29.6579 250.508 24.9157 249.031C19.0042 247.188 13.2837 246.743 9.76225 247.745C9.04861 247.949 8.42893 248.208 7.91112 248.534L7.90992 248.53Z" fill="#CC003D"/>
<path d="M58.8438 14.2721C58.968 14.4947 59.0594 14.7226 59.1217 14.9588C59.1677 15.1368 59.1968 15.3143 59.2138 15.5005L59.3539 16.3145L59.1742 16.371C58.6222 19.6341 53.7845 23.7225 46.867 26.4042C38.5053 29.6437 30.2134 29.6217 28.1134 26.4027L27.8635 26.4842L27.6729 25.3208C27.6605 25.2655 27.6507 25.2063 27.6449 25.1499L27.6395 25.1171L27.645 25.1094C27.608 24.8218 27.6105 24.5278 27.6523 24.2273C28.1135 20.9454 32.982 16.7979 39.9725 14.0874C48.4892 10.7852 56.9331 10.87 58.8372 14.2731L58.8438 14.2721Z" fill="#CC003D"/>
<path d="M47.0769 27.6554C55.5936 24.3533 60.9567 18.9198 59.0526 15.5167C57.1485 12.1136 48.7046 12.0288 40.1879 15.3309C31.6711 18.633 26.308 24.0666 28.2121 27.4697C30.1162 30.8728 38.5629 30.9537 47.0769 27.6554Z" fill="#D94668"/>
<path d="M40.7477 16.262C44.3182 14.8826 47.9796 14.1193 51.0581 14.1031C54.2072 14.0854 56.3911 14.8708 57.2138 16.3084C57.6312 17.0431 57.6749 17.8865 57.3389 18.8225C56.3546 21.5896 52.1704 24.7438 46.6894 26.8623C43.1188 28.2418 39.4575 29.005 36.379 29.0212C33.2299 29.0389 31.046 28.2534 30.2233 26.8158C29.8059 26.0811 29.7622 25.2379 30.0982 24.3018C30.2747 23.8138 30.5471 23.3135 30.9071 22.8122C32.5997 20.4553 36.2312 18.0061 40.7449 16.2659L40.7477 16.262ZM56.8084 18.6329C57.0864 17.8582 57.0543 17.1683 56.7231 16.5882C56.0213 15.3535 53.956 14.6531 51.0593 14.6665C48.0476 14.6785 44.4596 15.4365 40.9488 16.7893C36.5781 18.4756 32.9735 20.9036 31.355 23.1572C31.028 23.6125 30.781 24.0614 30.626 24.4952C30.3479 25.2699 30.38 25.9599 30.7113 26.54C31.413 27.7747 33.4784 28.475 36.3751 28.4616C39.3867 28.4496 42.9785 27.6944 46.4855 26.3389C50.8562 24.6525 54.4608 22.2246 56.0793 19.971C56.4063 19.5157 56.6534 19.0667 56.8084 18.6329Z" fill="#CC003D"/>
<path d="M129.781 186.034C129.856 185.803 129.899 185.567 129.908 185.329C129.919 185.154 129.912 184.979 129.889 184.802L129.862 184.003L129.68 183.985C128.52 181.008 123.151 178.087 116.092 176.905C107.558 175.474 99.7249 177.114 98.3679 180.57L98.1168 180.543L98.1638 181.679C98.1661 181.735 98.1685 181.791 98.1708 181.847L98.1721 181.878L98.1786 181.884C98.1994 182.162 98.261 182.44 98.36 182.718C99.4411 185.73 104.846 188.702 111.983 189.896C120.676 191.352 128.642 189.625 129.778 186.038L129.781 186.034Z" fill="#CC003D"/>
<path d="M116.042 175.682C124.734 177.137 130.863 181.227 129.731 184.817C128.595 188.405 120.631 190.135 111.936 188.676C103.244 187.22 97.1146 183.131 98.2472 179.54C99.3831 175.953 107.346 174.223 116.042 175.682Z" fill="#D94668"/>
<path d="M101.711 183.42C101.269 183.013 100.914 182.597 100.656 182.167C100.159 181.349 100.032 180.542 100.284 179.766C100.778 178.246 102.689 177.083 105.67 176.479C108.581 175.894 112.194 175.902 115.835 176.506C121.433 177.435 125.995 179.601 127.47 182.022C127.967 182.839 128.094 183.647 127.842 184.423C127.348 185.943 125.437 187.106 122.456 187.709C119.542 188.298 115.932 188.287 112.291 187.683C107.684 186.916 103.77 185.311 101.714 183.417L101.711 183.42ZM126.058 181.189C124.089 179.376 120.207 177.789 115.745 177.047C112.167 176.453 108.625 176.439 105.777 177.015C103.037 177.565 101.225 178.634 100.798 179.939C100.595 180.556 100.707 181.211 101.116 181.888C101.347 182.269 101.669 182.644 102.066 183.009C104.035 184.822 107.916 186.409 112.379 187.151C115.957 187.745 119.498 187.759 122.346 187.183C125.086 186.633 126.898 185.565 127.326 184.259C127.525 183.645 127.417 182.987 127.007 182.31C126.776 181.929 126.457 181.557 126.058 181.189Z" fill="#CC003D"/>
<path d="M45.3233 102.799C45.3606 102.941 45.3787 103.086 45.3809 103.234C45.3837 103.341 45.374 103.447 45.3548 103.555L45.314 104.037L45.2037 104.042C44.4117 105.817 41.0572 107.429 36.7344 107.933C31.5053 108.543 26.795 107.313 26.0746 105.172L25.9202 105.18L25.9832 104.489C25.9832 104.455 25.9894 104.421 25.9922 104.39L25.9939 104.371C26.0154 104.204 26.059 104.035 26.1303 103.872C26.8771 102.078 30.253 100.437 34.6239 99.9216C39.9515 99.2984 44.7381 100.586 45.3199 102.802L45.3233 102.799Z" fill="#CC003D"/>
<path d="M36.6683 108.673C41.9959 108.05 45.8396 105.749 45.2605 103.536C44.6815 101.323 39.8921 100.033 34.5645 100.656C29.2369 101.279 25.3932 103.58 25.9722 105.792C26.5513 108.005 31.3407 109.296 36.6683 108.673Z" fill="#D94668"/>
<path d="M34.7466 101.269C36.9807 101.011 39.1723 101.116 40.9255 101.557C42.7184 102.011 43.8462 102.778 44.0993 103.717C44.2281 104.196 44.1274 104.682 43.8044 105.164C42.8372 106.59 39.9956 107.768 36.5668 108.166C34.3328 108.424 32.1412 108.319 30.3913 107.875C28.5985 107.42 27.4706 106.653 27.2175 105.715C27.0887 105.236 27.1895 104.75 27.5159 104.265C27.6861 104.014 27.9152 103.772 28.1968 103.537C29.5032 102.448 31.9268 101.59 34.7534 101.263L34.7466 101.269ZM43.5234 104.978C43.7949 104.58 43.8781 104.183 43.7747 103.803C43.5567 102.997 42.4854 102.297 40.8367 101.878C39.1236 101.444 36.9721 101.345 34.7794 101.598C32.0477 101.914 29.6377 102.762 28.3918 103.805C28.1373 104.017 27.9326 104.234 27.7804 104.458C27.5089 104.857 27.4257 105.254 27.5291 105.633C27.7471 106.44 28.8185 107.139 30.4672 107.559C32.1803 107.993 34.3317 108.091 36.5245 107.839C39.2561 107.523 41.6661 106.675 42.9148 105.635C43.1659 105.426 43.3741 105.206 43.5262 104.982L43.5234 104.978Z" fill="#CC003D"/>
</svg>
