<svg width="128" height="254" viewBox="0 0 128 254" fill="none" xmlns="http://www.w3.org/2000/svg">
<path d="M2.36481 173.427C2.28996 173.164 2.25089 172.892 2.24131 172.617C2.23215 172.417 2.24627 172.219 2.27827 172.017L2.33686 171.114L2.54263 171.099C3.95722 167.754 10.1653 164.621 18.2232 163.52C27.9707 162.188 36.8162 164.314 38.2408 168.287L38.5288 168.267L38.4366 169.559C38.4379 169.623 38.4276 169.687 38.4234 169.745L38.4209 169.78C38.3868 170.094 38.3116 170.41 38.1844 170.717C36.855 174.097 30.6078 177.286 22.4605 178.41C12.5297 179.77 3.53953 177.541 2.37105 173.421L2.36481 173.427Z" fill="#CC003D"/>
<path d="M18.3223 162.136C8.39151 163.496 1.29466 167.935 2.45773 172.048C3.6208 176.161 12.6163 178.397 22.5472 177.037C32.478 175.677 39.5749 171.238 38.4118 167.125C37.2488 163.011 28.2531 160.776 18.3223 162.136Z" fill="#D94668"/>
<path d="M22.1859 175.898C18.0215 176.462 13.923 176.347 10.6311 175.586C7.26477 174.803 5.12941 173.411 4.6221 171.667C4.36388 170.777 4.53427 169.865 5.12 168.953C6.87471 166.252 12.1404 163.947 18.532 163.079C22.6965 162.515 26.7949 162.63 30.0806 163.396C33.4469 164.179 35.5823 165.571 36.0896 167.315C36.3478 168.205 36.1774 169.117 35.5854 170.034C35.2765 170.509 34.8575 170.971 34.3399 171.42C31.9391 173.502 27.4426 175.195 22.1735 175.909L22.1859 175.898ZM5.65182 169.289C5.15921 170.044 5.0183 170.789 5.22538 171.494C5.66241 172.993 7.68961 174.26 10.7853 174.983C14.0019 175.732 18.0251 175.836 22.1127 175.284C27.2047 174.593 31.6764 172.921 33.9658 170.925C34.4335 170.52 34.808 170.108 35.0841 169.683C35.5767 168.928 35.7176 168.183 35.5105 167.478C35.0735 165.979 33.0462 164.712 29.9505 163.989C26.7339 163.24 22.7107 163.136 18.6231 163.688C13.5311 164.379 9.0595 166.051 6.7647 168.04C6.30325 168.441 5.92244 168.858 5.64641 169.283L5.65182 169.289Z" fill="#CC003D"/>
<path d="M126.239 240.004C126.216 239.834 126.172 239.675 126.107 239.52C126.061 239.408 126.005 239.298 125.936 239.193L125.678 238.699L125.559 238.741C123.933 237.216 119.672 236.994 114.87 238.376C109.066 240.046 104.629 243.437 104.814 246.019L104.648 246.077L105.022 246.778C105.039 246.814 105.056 246.847 105.077 246.882L105.087 246.902L105.092 246.903C105.189 247.073 105.312 247.229 105.456 247.374L105.458 247.374C107.045 248.946 111.344 249.188 116.199 247.789C122.111 246.088 126.606 242.6 126.24 240.001L126.239 240.004Z" fill="#CC003D"/>
<path d="M114.47 237.625C120.382 235.923 125.471 236.651 125.839 239.253C126.206 241.855 121.709 245.339 115.797 247.041C109.885 248.743 104.796 248.015 104.428 245.413C104.061 242.811 108.558 239.327 114.47 237.625Z" fill="#D94668"/>
<path d="M107.777 246.814C107.377 246.691 107.028 246.534 106.736 246.343C106.175 245.977 105.854 245.506 105.78 244.945C105.634 243.841 106.485 242.53 108.181 241.254C109.837 240.008 112.112 238.927 114.589 238.211C118.392 237.111 121.918 237.098 123.577 238.18C124.137 238.545 124.458 239.017 124.533 239.578C124.678 240.682 123.827 241.993 122.131 243.269C120.476 244.515 118.201 245.596 115.723 246.312C112.591 247.217 109.646 247.385 107.778 246.812L107.777 246.814ZM122.434 238.075C120.648 237.527 117.725 237.694 114.693 238.574C112.259 239.278 110.028 240.336 108.408 241.556C106.85 242.729 106.027 243.948 106.154 244.895C106.212 245.344 106.48 245.724 106.942 246.028C107.201 246.197 107.516 246.339 107.875 246.449C109.661 246.998 112.584 246.83 115.616 245.951C118.05 245.247 120.281 244.189 121.901 242.968C123.459 241.796 124.282 240.577 124.155 239.63C124.097 239.18 123.829 238.801 123.367 238.497C123.108 238.327 122.793 238.186 122.434 238.075Z" fill="#CC003D"/>
<path d="M121.961 85.679C122.058 85.4088 122.118 85.144 122.145 84.8684C122.166 84.6631 122.166 84.4577 122.15 84.2578L122.155 83.3337L121.95 83.3012C120.749 79.7992 114.669 76.1611 106.552 74.452C96.7378 72.3858 87.589 73.9134 85.8496 77.8473L85.5578 77.804L85.5581 79.1226C85.5581 79.1874 85.5581 79.2523 85.5581 79.3171L85.5581 79.3495L85.5635 79.3549C85.5744 79.6792 85.6285 80.0035 85.7366 80.3277C86.8451 83.8676 92.9632 87.5651 101.172 89.2905C111.17 91.3891 120.476 89.7696 121.961 85.6682L121.961 85.679Z" fill="#CC003D"/>
<path d="M106.546 73.0303C116.543 75.129 123.445 80.1614 121.96 84.2628C120.475 88.3642 111.169 89.9837 101.171 87.8851C91.1734 85.7865 84.2714 80.754 85.7568 76.6526C87.2422 72.5512 96.5476 70.9317 106.546 73.0303Z" fill="#D94668"/>
<path d="M89.5786 81.3166C89.0868 80.8247 88.6922 80.3221 88.4165 79.8194C87.8759 78.8466 87.773 77.9117 88.1025 77.0201C88.7453 75.2855 91.0202 74.0268 94.4949 73.4708C97.8939 72.9256 102.071 73.1155 106.265 73.9918C112.701 75.3385 117.884 78.0577 119.474 80.933C120.014 81.9058 120.117 82.8408 119.788 83.7324C119.145 85.4669 116.87 86.7257 113.395 87.2816C109.996 87.8268 105.819 87.6369 101.625 86.7607C96.3237 85.6519 91.8704 83.6083 89.5786 81.3166ZM117.879 79.8897C115.685 77.6953 111.264 75.6733 106.135 74.597C102.023 73.737 97.9211 73.5579 94.5923 74.0869C91.3932 74.5943 89.2425 75.7395 88.6862 77.2363C88.4269 77.9388 88.5136 78.7062 88.9623 79.5115C89.2109 79.9655 89.5622 80.4141 90.0055 80.8573C92.1999 83.0518 96.6208 85.0737 101.749 86.15C105.862 87.01 109.964 87.1892 113.293 86.6602C116.492 86.1528 118.642 85.0075 119.199 83.5107C119.458 82.8082 119.371 82.0408 118.923 81.2355C118.674 80.7815 118.323 80.3329 117.879 79.8897Z" fill="#CC003D"/>
<path d="M58.0497 8.16436C58.0928 7.95946 58.1614 7.76674 58.2513 7.58725C58.32 7.45346 58.3983 7.32198 58.4882 7.2014L58.8473 6.61947L58.9931 6.68082C61.1137 4.95577 66.3403 5.04799 72.0921 7.14862C79.0427 9.68711 84.179 14.215 83.7292 17.3562L83.9302 17.441L83.4148 18.2677C83.3927 18.3091 83.3662 18.3515 83.3388 18.3895L83.3256 18.4108L83.3213 18.4118C83.1861 18.6108 83.0235 18.7891 82.8353 18.9552C80.7608 20.742 75.4835 20.6661 69.6678 18.544C62.584 15.9594 57.3877 11.3095 58.0583 8.16236L58.0497 8.16436Z" fill="#CC003D"/>
<path d="M72.6399 6.2649C65.5561 3.68026 59.2724 4.13252 58.6018 7.27963C57.9311 10.4267 63.1275 15.0767 70.2113 17.6613C77.2951 20.246 83.5787 19.7937 84.2493 16.6466C84.9199 13.4995 79.7237 8.84955 72.6399 6.2649Z" fill="#D94668"/>
<path d="M70.3657 16.7818C67.4016 15.6931 64.7104 14.1784 62.791 12.5117C60.8262 10.8058 59.8979 9.13115 60.1724 7.7938C60.3136 7.11287 60.744 6.56427 61.4632 6.16617C63.5832 4.98518 67.8921 5.30403 72.4469 6.9754C75.4111 8.06415 78.1023 9.57884 80.0217 11.2455C81.9865 12.9515 82.9147 14.6261 82.6402 15.9634C82.499 16.6443 82.0686 17.193 81.3494 17.591C80.9763 17.8 80.5332 17.9618 80.0341 18.0776C77.7022 18.6189 74.1135 18.1601 70.3624 16.7871L70.3657 16.7818ZM61.6878 6.5673C61.094 6.90003 60.7383 7.34064 60.6284 7.88286C60.3924 9.0345 61.2937 10.593 63.0991 12.1592C64.9741 13.7908 67.6133 15.2768 70.5274 16.3454C74.1603 17.6779 77.7169 18.135 79.9498 17.6167C80.4016 17.5119 80.7983 17.3654 81.1282 17.1846C81.722 16.8519 82.0777 16.4113 82.1876 15.869C82.4236 14.7174 81.5223 13.1589 79.7169 11.5927C77.8376 9.96208 75.2027 8.47512 72.2886 7.40649C68.6557 6.07408 65.0991 5.61689 62.8662 6.13517C62.4144 6.24003 62.0177 6.38649 61.6878 6.5673Z" fill="#CC003D"/>
</svg>
