<svg width="25" height="24" viewBox="0 0 25 24" fill="none" xmlns="http://www.w3.org/2000/svg">
<path d="M22.6137 19.817L23.2647 20.4717L22.6124 19.817H22.6137ZM7.10003 17.1637L7.74982 16.509L7.0988 17.1637H7.10003ZM2.02235 4.12864L1.37257 3.47517L2.02359 4.12987L2.02235 4.12864ZM16.7139 16.1349L17.2763 15.5774L15.973 14.268L15.4143 14.8255L16.7139 16.1349ZM19.158 15.3436L21.5098 16.6222L22.3897 15.0002L20.0391 13.7228L19.158 15.3436ZM21.9614 19.1623L20.2139 20.9012L21.5147 22.2094L23.2622 20.4717L21.9614 19.1623ZM19.1481 21.4599C17.3637 21.6273 12.7487 21.4784 7.74982 16.509L6.44779 17.8172C11.902 23.2407 17.0942 23.5065 19.3204 23.2985L19.1469 21.4599H19.1481ZM7.74982 16.509C2.98596 11.771 2.19588 7.78738 2.09742 6.05831L0.253905 6.16291C0.376971 8.33871 1.35534 12.7543 6.44779 17.8172L7.74982 16.509ZM9.44197 8.90358L9.79516 8.55161L8.49559 7.24343L8.1424 7.59416L9.4432 8.90235L9.44197 8.90358ZM10.0758 4.07819L8.52513 2.00577L7.04711 3.11335L8.59774 5.18454L10.0758 4.07819ZM3.30593 1.55412L1.3738 3.47394L2.67583 4.78335L4.60673 2.86353L3.30593 1.55412ZM8.79218 8.24887C8.13993 7.59416 8.13993 7.59416 8.13993 7.59662H8.13747L8.13378 7.60155C8.07568 7.66085 8.02334 7.72555 7.97749 7.79476C7.91103 7.89321 7.83842 8.02243 7.77689 8.18611C7.62704 8.60861 7.58971 9.06284 7.66859 9.50414C7.8335 10.5687 8.56697 11.9753 10.4449 13.8434L11.747 12.534C9.98838 10.7865 9.56995 9.72319 9.49242 9.22109C9.4555 8.98234 9.49365 8.8642 9.50473 8.83712C9.51088 8.81989 9.51334 8.81866 9.50473 8.82974C9.49388 8.84681 9.48152 8.86287 9.46781 8.87774L9.4555 8.89004C9.45152 8.89387 9.44742 8.89756 9.4432 8.90112L8.79095 8.24887H8.79218ZM10.4449 13.8434C12.3242 15.7116 13.7382 16.4401 14.8039 16.6025C15.3491 16.6862 15.7884 16.6198 16.122 16.4955C16.3084 16.4265 16.4829 16.3284 16.6388 16.205C16.66 16.1873 16.6805 16.1689 16.7004 16.1497L16.709 16.1423L16.7127 16.1386L16.7139 16.1361C16.7139 16.1361 16.7151 16.1349 16.0641 15.4802C15.4119 14.8255 15.4156 14.8243 15.4156 14.8243L15.418 14.8218L15.4205 14.8193L15.4279 14.8132L15.4402 14.8009C15.455 14.7876 15.4706 14.7753 15.4869 14.764C15.4992 14.7553 15.4956 14.759 15.4783 14.7664C15.4476 14.7775 15.327 14.8156 15.0845 14.7787C14.575 14.7 13.5044 14.2815 11.747 12.534L10.4449 13.8434ZM8.52513 2.00453C7.26986 0.330846 4.80363 0.0650246 3.30593 1.55412L4.60673 2.86353C5.26144 2.21252 6.42317 2.2802 7.04711 3.11335L8.5239 2.00453H8.52513ZM2.09866 6.05954C2.07404 5.63373 2.26972 5.18824 2.67583 4.78458L1.37257 3.47517C0.711709 4.13233 0.191142 5.06271 0.253905 6.16291L2.09866 6.05954ZM20.2139 20.9012C19.8767 21.2384 19.5124 21.4279 19.1494 21.4612L19.3204 23.2985C20.225 23.2136 20.9646 22.7583 21.5159 22.2106L20.2139 20.9012ZM9.79516 8.55161C11.0074 7.3468 11.0972 5.44298 10.077 4.07942L8.59897 5.18577C9.09492 5.8491 9.02108 6.71917 8.49436 7.24466L9.79516 8.55161ZM21.511 16.6235C22.5164 17.1699 22.6727 18.4571 21.9626 19.1635L23.2647 20.4717C24.9137 18.8313 24.4055 16.0955 22.3909 15.0015L21.511 16.6235ZM17.2763 15.5786C17.7489 15.1085 18.5094 14.9929 19.1592 15.3448L20.0404 13.724C18.7063 12.998 17.0523 13.1986 15.9743 14.2692L17.2763 15.5786Z" fill="#0071F5"/>
</svg>
