<svg width="21" height="21" viewBox="0 0 21 21" fill="none" xmlns="http://www.w3.org/2000/svg">
<rect width="21" height="21" fill="#272727"/>
<g id="&#208;&#156;&#208;&#181;&#208;&#189;&#209;&#142; &#208;&#156;&#208;&#190;&#208;&#177;&#208;&#184;&#208;&#187;&#208;&#186;&#208;&#176;" clip-path="url(#clip0_0_1)">
<rect width="320" height="568" transform="translate(-99 -269)" fill="white"/>
<g id="&#208;&#145;&#208;&#176;&#208;&#189;&#208;&#189;&#208;&#181;&#209;&#128;">
<path id="&#208;&#164;&#208;&#190;&#208;&#189;" d="M-99 -134.723C-99 -163.007 -99 -177.149 -90.2132 -185.936C-81.4264 -194.723 -67.2843 -194.723 -39 -194.723H161C189.284 -194.723 203.426 -194.723 212.213 -185.936C221 -177.149 221 -163.007 221 -134.723V405.006C221 433.29 221 447.432 212.213 456.219C203.426 465.006 189.284 465.006 161 465.006H-39C-67.2843 465.006 -81.4264 465.006 -90.2132 456.219C-99 447.432 -99 433.29 -99 405.006V-134.723Z" fill="#EDF3FA"/>
<g id="&#208;&#159;&#209;&#128;&#208;&#181;&#208;&#184;&#208;&#188;&#209;&#131;&#209;&#137;&#208;&#181;&#209;&#129;&#209;&#130;&#208;&#178;&#208;&#176;">
<g id="Frame 10">
<g id="Frame 5">
<path id="&#208;&#180;&#208;&#190; 100 &#208;&#188;&#208;&#187;&#208;&#189;. &#226;&#130;&#189;" d="M-61.28 15.8673V7.78731H-65.28V9.09731C-65.28 9.99731 -65.3333 10.8106 -65.44 11.5373C-65.5467 12.264 -65.7367 12.904 -66.01 13.4573C-66.2833 14.004 -66.6667 14.4573 -67.16 14.8173C-67.6467 15.1773 -68.27 15.4406 -69.03 15.6073L-69.57 14.1173C-68.9367 13.964 -68.46 13.6773 -68.14 13.2573C-67.82 12.8373 -67.6067 12.284 -67.5 11.5973C-67.3867 10.904 -67.33 10.0706 -67.33 9.09731V5.96731H-59.08V15.8673H-61.28ZM-69.57 18.8673V14.1173L-68.21 14.2573L-67.87 14.0473H-57.09V18.8673H-59.1V15.8673H-67.56V18.8673H-69.57ZM-50.7959 16.1673C-51.8293 16.1673 -52.7526 15.9306 -53.5659 15.4573C-54.3726 14.9773 -55.0059 14.3406 -55.4659 13.5473C-55.9259 12.7473 -56.1559 11.8706 -56.1559 10.9173C-56.1559 10.2106 -56.0259 9.54398 -55.7659 8.91731C-55.4993 8.28398 -55.1259 7.72398 -54.6459 7.23731C-54.1593 6.75064 -53.5893 6.36731 -52.9359 6.08731C-52.2826 5.80731 -51.5659 5.66731 -50.7859 5.66731C-49.7526 5.66731 -48.8326 5.90731 -48.0259 6.38731C-47.2126 6.86064 -46.5759 7.49731 -46.1159 8.29731C-45.6559 9.09064 -45.4259 9.96398 -45.4259 10.9173C-45.4259 11.6173 -45.5593 12.284 -45.8259 12.9173C-46.0859 13.5506 -46.4559 14.1106 -46.9359 14.5973C-47.4159 15.084 -47.9826 15.4673 -48.6359 15.7473C-49.2893 16.0273 -50.0093 16.1673 -50.7959 16.1673ZM-50.7959 14.2173C-50.1826 14.2173 -49.6393 14.084 -49.1659 13.8173C-48.6859 13.544 -48.3093 13.1606 -48.0359 12.6673C-47.7626 12.174 -47.6259 11.5906 -47.6259 10.9173C-47.6259 10.244 -47.7626 9.66064 -48.0359 9.16731C-48.3093 8.66731 -48.6859 8.28398 -49.1659 8.01731C-49.6393 7.75064 -50.1826 7.61731 -50.7959 7.61731C-51.4093 7.61731 -51.9559 7.75064 -52.4359 8.01731C-52.9093 8.28398 -53.2826 8.66731 -53.5559 9.16731C-53.8226 9.66064 -53.9559 10.244 -53.9559 10.9173C-53.9559 11.5906 -53.8193 12.174 -53.5459 12.6673C-53.2726 13.1606 -52.8993 13.544 -52.4259 13.8173C-51.9459 14.084 -51.4026 14.2173 -50.7959 14.2173ZM-35.4737 15.8673V4.22731L-39.1037 5.55731L-39.6837 3.81731L-33.5537 1.56731H-33.3937V15.8673H-35.4737ZM-24.3819 16.1673C-25.2752 16.1673 -26.0785 15.9773 -26.7919 15.5973C-27.4985 15.2173 -28.1019 14.6906 -28.6019 14.0173C-29.0952 13.344 -29.4719 12.5673 -29.7319 11.6873C-29.9919 10.8073 -30.1219 9.86731 -30.1219 8.86731C-30.1219 7.86064 -29.9919 6.91731 -29.7319 6.03731C-29.4719 5.15731 -29.0952 4.38398 -28.6019 3.71731C-28.1019 3.04398 -27.4985 2.51731 -26.7919 2.13731C-26.0785 1.75731 -25.2752 1.56731 -24.3819 1.56731C-23.4885 1.56731 -22.6885 1.75731 -21.9819 2.13731C-21.2685 2.51731 -20.6652 3.04398 -20.1719 3.71731C-19.6719 4.38398 -19.2919 5.15731 -19.0319 6.03731C-18.7652 6.91731 -18.6319 7.86064 -18.6319 8.86731C-18.6319 9.86731 -18.7652 10.8073 -19.0319 11.6873C-19.2919 12.5673 -19.6719 13.344 -20.1719 14.0173C-20.6652 14.6906 -21.2685 15.2173 -21.9819 15.5973C-22.6885 15.9773 -23.4885 16.1673 -24.3819 16.1673ZM-24.3819 14.1873C-23.8485 14.1873 -23.3652 14.0673 -22.9319 13.8273C-22.4985 13.5806 -22.1252 13.2273 -21.8119 12.7673C-21.4919 12.3073 -21.2485 11.7506 -21.0819 11.0973C-20.9152 10.4373 -20.8319 9.69398 -20.8319 8.86731C-20.8319 7.76064 -20.9819 6.81064 -21.2819 6.01731C-21.5752 5.21731 -21.9885 4.60731 -22.5219 4.18731C-23.0485 3.76064 -23.6685 3.54731 -24.3819 3.54731C-24.9085 3.54731 -25.3919 3.67064 -25.8319 3.91731C-26.2652 4.15731 -26.6385 4.50731 -26.9519 4.96731C-27.2652 5.42731 -27.5085 5.98398 -27.6819 6.63731C-27.8485 7.29064 -27.9319 8.03398 -27.9319 8.86731C-27.9319 9.97398 -27.7852 10.924 -27.4919 11.7173C-27.1919 12.5106 -26.7752 13.1206 -26.2419 13.5473C-25.7085 13.974 -25.0885 14.1873 -24.3819 14.1873ZM-10.7881 16.1673C-11.6815 16.1673 -12.4848 15.9773 -13.1981 15.5973C-13.9048 15.2173 -14.5081 14.6906 -15.0081 14.0173C-15.5015 13.344 -15.8781 12.5673 -16.1381 11.6873C-16.3981 10.8073 -16.5281 9.86731 -16.5281 8.86731C-16.5281 7.86064 -16.3981 6.91731 -16.1381 6.03731C-15.8781 5.15731 -15.5015 4.38398 -15.0081 3.71731C-14.5081 3.04398 -13.9048 2.51731 -13.1981 2.13731C-12.4848 1.75731 -11.6815 1.56731 -10.7881 1.56731C-9.89479 1.56731 -9.09479 1.75731 -8.38812 2.13731C-7.67479 2.51731 -7.07146 3.04398 -6.57812 3.71731C-6.07812 4.38398 -5.69812 5.15731 -5.43812 6.03731C-5.17146 6.91731 -5.03812 7.86064 -5.03812 8.86731C-5.03812 9.86731 -5.17146 10.8073 -5.43812 11.6873C-5.69812 12.5673 -6.07812 13.344 -6.57812 14.0173C-7.07146 14.6906 -7.67479 15.2173 -8.38812 15.5973C-9.09479 15.9773 -9.89479 16.1673 -10.7881 16.1673ZM-10.7881 14.1873C-10.2548 14.1873 -9.77146 14.0673 -9.33812 13.8273C-8.90479 13.5806 -8.53146 13.2273 -8.21812 12.7673C-7.89812 12.3073 -7.65479 11.7506 -7.48812 11.0973C-7.32146 10.4373 -7.23812 9.69398 -7.23812 8.86731C-7.23812 7.76064 -7.38812 6.81064 -7.68812 6.01731C-7.98146 5.21731 -8.39479 4.60731 -8.92812 4.18731C-9.45479 3.76064 -10.0748 3.54731 -10.7881 3.54731C-11.3148 3.54731 -11.7981 3.67064 -12.2381 3.91731C-12.6715 4.15731 -13.0448 4.50731 -13.3581 4.96731C-13.6715 5.42731 -13.9148 5.98398 -14.0881 6.63731C-14.2548 7.29064 -14.3381 8.03398 -14.3381 8.86731C-14.3381 9.97398 -14.1915 10.924 -13.8981 11.7173C-13.5981 12.5106 -13.1815 13.1206 -12.6481 13.5473C-12.1148 13.974 -11.4948 14.1873 -10.7881 14.1873ZM2.44797 15.8673V5.96731H4.35797H4.41797L8.85797 12.3873L7.90797 12.4073L12.128 5.96731H14.078V15.8673H12.078L12.108 8.54731L12.518 8.72731L8.97797 13.8973H7.55797L3.85797 8.71731L4.26797 8.53731L4.29797 15.8673H2.44797ZM16.7755 16.0373L16.0055 14.0573C16.6855 13.884 17.1821 13.6106 17.4955 13.2373C17.8155 12.864 18.0155 12.344 18.0955 11.6773C18.1821 11.0106 18.2255 10.1506 18.2255 9.09731V5.96731H26.2755V15.8673H24.0755V7.78731H20.2755V9.09731C20.2755 10.1573 20.2255 11.0806 20.1255 11.8673C20.0321 12.654 19.8588 13.324 19.6055 13.8773C19.3521 14.4306 18.9955 14.884 18.5355 15.2373C18.0821 15.584 17.4955 15.8506 16.7755 16.0373ZM29.3425 15.8673V5.96731H31.5425V9.78731H36.5025V5.96731H38.7025V15.8673H36.5025V11.6073H31.5425V15.8673H29.3425ZM42.9244 16.1673C42.4977 16.1673 42.1277 16.0306 41.8144 15.7573C41.5077 15.484 41.3544 15.1273 41.3544 14.6873C41.3544 14.3873 41.4244 14.1273 41.5644 13.9073C41.7044 13.6806 41.8944 13.5073 42.1344 13.3873C42.3744 13.2606 42.6377 13.1973 42.9244 13.1973C43.3577 13.1973 43.7244 13.334 44.0244 13.6073C44.331 13.874 44.4844 14.234 44.4844 14.6873C44.4844 14.9806 44.4144 15.2406 44.2744 15.4673C44.1344 15.6873 43.9444 15.8573 43.7044 15.9773C43.471 16.104 43.211 16.1673 42.9244 16.1673ZM51.7178 12.5273V11.0573H62.2678V12.5273H51.7178ZM54.2878 15.8673V1.86731H58.0878C59.4545 1.86731 60.5078 2.20064 61.2478 2.86731C61.9945 3.52731 62.3678 4.41731 62.3678 5.53731C62.3678 6.35731 62.2045 7.05064 61.8778 7.61731C61.5578 8.17731 61.0645 8.60398 60.3978 8.89731C59.7311 9.19064 58.8845 9.33731 57.8578 9.33731H51.7178V7.85731H57.8278C58.7745 7.85731 59.4445 7.67398 59.8378 7.30731C60.2378 6.94064 60.4378 6.40398 60.4378 5.69731C60.4378 5.05731 60.2511 4.55398 59.8778 4.18731C59.5045 3.81398 58.9111 3.62731 58.0978 3.62731H56.2978V15.8673H54.2878Z" fill="#0071F5"/>
</g>
</g>
</g>
</g>
<g id="&#208;&#156;&#208;&#181;&#208;&#189;&#209;&#142;">
<g id="Rectangle 23" filter="url(#filter0_ddddd_0_1)">
<path d="M-29 -250.414C-29 -261.46 -20.0457 -270.414 -9 -270.414H221V299H-9C-20.0457 299 -29 290.046 -29 279V-250.414Z" fill="#0071F5"/>
<path d="M-29 -250.414C-29 -261.46 -20.0457 -270.414 -9 -270.414H221V299H-9C-20.0457 299 -29 290.046 -29 279V-250.414Z" fill="url(#paint0_linear_0_1)"/>
</g>
<g id="&#208;&#157;&#208;&#176;&#208;&#191;&#208;&#184;&#209;&#129;&#208;&#176;&#209;&#130;&#209;&#140; &#208;&#178; WhatsApp">
<g id="&#208;&#152;&#208;&#186;&#208;&#190;&#208;&#189;&#208;&#186;&#208;&#176;">
<circle id="Ellipse 8" cx="10.7988" cy="10.1826" r="10" fill="white"/>
<path id="Vector" d="M13.6127 11.3388C13.4561 11.2606 12.6859 10.8839 12.5425 10.8314C12.3986 10.7795 12.2942 10.7538 12.1893 10.9101C12.0854 11.066 11.7849 11.417 11.6937 11.5209C11.6025 11.6253 11.5108 11.6379 11.3542 11.5602C11.1976 11.4815 10.6926 11.3173 10.0942 10.7863C9.62872 10.3728 9.31399 9.86232 9.22278 9.70596C9.13158 9.55013 9.21329 9.46565 9.29132 9.388C9.36196 9.31821 9.44842 9.20593 9.52644 9.11516C9.605 9.02386 9.63083 8.9588 9.68355 8.85438C9.73574 8.7505 9.70991 8.65972 9.67037 8.58154C9.63083 8.50337 9.31768 7.73574 9.18746 7.42355C9.05988 7.11975 8.93072 7.1612 8.83477 7.15596C8.73465 7.15199 8.63446 7.15024 8.53427 7.15071C8.42988 7.15071 8.26012 7.18954 8.11673 7.3459C7.97333 7.50173 7.56845 7.87898 7.56845 8.64661C7.56845 9.41371 8.12991 10.1551 8.20793 10.2595C8.28648 10.3634 9.31293 11.9385 10.8845 12.6138C11.2583 12.7744 11.5498 12.8704 11.7776 12.9417C12.1529 13.0608 12.4945 13.044 12.7639 13.0036C13.065 12.959 13.6908 12.6264 13.8215 12.2623C13.9522 11.8981 13.9522 11.5859 13.9127 11.5209C13.8737 11.4558 13.7698 11.417 13.6127 11.3388ZM10.7543 15.2231H10.7522C9.81891 15.2232 8.90282 14.9734 8.09986 14.5001L7.90954 14.3878L5.93731 14.903L6.46345 12.989L6.33956 12.7927C5.81787 11.9659 5.54188 11.0091 5.54349 10.0328C5.54402 7.17327 7.88213 4.84679 10.7564 4.84679C12.1482 4.84679 13.4567 5.38722 14.4404 6.36735C14.9258 6.84829 15.3105 7.42026 15.5723 8.05016C15.8341 8.68006 15.9678 9.35538 15.9656 10.037C15.964 12.8966 13.6264 15.2231 10.7543 15.2231ZM15.1896 5.62281C14.6087 5.04089 13.9176 4.57948 13.1562 4.26533C12.3949 3.95118 11.5785 3.79052 10.7543 3.79269C7.29852 3.79269 4.48594 6.59191 4.48436 10.0323C4.48436 11.1321 4.77274 12.2056 5.32154 13.1516L4.43164 16.3853L7.7556 15.5174C8.67481 16.0159 9.70487 16.2771 10.7516 16.2772H10.7543C14.2095 16.2772 17.0226 13.478 17.0242 10.037C17.0267 9.21709 16.8659 8.40478 16.551 7.64709C16.2361 6.8894 15.7734 6.20137 15.1896 5.62281Z" fill="#0071F5"/>
</g>
</g>
</g>
</g>
<defs>
<filter id="filter0_ddddd_0_1" x="-145" y="-303.414" width="372" height="635.414" filterUnits="userSpaceOnUse" color-interpolation-filters="sRGB">
<feFlood flood-opacity="0" result="BackgroundImageFix"/>
<feColorMatrix in="SourceAlpha" type="matrix" values="0 0 0 0 0 0 0 0 0 0 0 0 0 0 0 0 0 0 127 0" result="hardAlpha"/>
<feOffset/>
<feColorMatrix type="matrix" values="0 0 0 0 0 0 0 0 0 0.192157 0 0 0 0 0.4 0 0 0 0.2 0"/>
<feBlend mode="normal" in2="BackgroundImageFix" result="effect1_dropShadow_0_1"/>
<feColorMatrix in="SourceAlpha" type="matrix" values="0 0 0 0 0 0 0 0 0 0 0 0 0 0 0 0 0 0 127 0" result="hardAlpha"/>
<feOffset dx="-5"/>
<feGaussianBlur stdDeviation="5.5"/>
<feColorMatrix type="matrix" values="0 0 0 0 0 0 0 0 0 0.192157 0 0 0 0 0.4 0 0 0 0.2 0"/>
<feBlend mode="normal" in2="effect1_dropShadow_0_1" result="effect2_dropShadow_0_1"/>
<feColorMatrix in="SourceAlpha" type="matrix" values="0 0 0 0 0 0 0 0 0 0 0 0 0 0 0 0 0 0 127 0" result="hardAlpha"/>
<feOffset dx="-21"/>
<feGaussianBlur stdDeviation="10.5"/>
<feColorMatrix type="matrix" values="0 0 0 0 0 0 0 0 0 0.192157 0 0 0 0 0.4 0 0 0 0.17 0"/>
<feBlend mode="normal" in2="effect2_dropShadow_0_1" result="effect3_dropShadow_0_1"/>
<feColorMatrix in="SourceAlpha" type="matrix" values="0 0 0 0 0 0 0 0 0 0 0 0 0 0 0 0 0 0 127 0" result="hardAlpha"/>
<feOffset dx="-47"/>
<feGaussianBlur stdDeviation="14"/>
<feColorMatrix type="matrix" values="0 0 0 0 0 0 0 0 0 0.192157 0 0 0 0 0.4 0 0 0 0.1 0"/>
<feBlend mode="normal" in2="effect3_dropShadow_0_1" result="effect4_dropShadow_0_1"/>
<feColorMatrix in="SourceAlpha" type="matrix" values="0 0 0 0 0 0 0 0 0 0 0 0 0 0 0 0 0 0 127 0" result="hardAlpha"/>
<feOffset dx="-83"/>
<feGaussianBlur stdDeviation="16.5"/>
<feColorMatrix type="matrix" values="0 0 0 0 0 0 0 0 0 0.192157 0 0 0 0 0.4 0 0 0 0.03 0"/>
<feBlend mode="normal" in2="effect4_dropShadow_0_1" result="effect5_dropShadow_0_1"/>
<feBlend mode="normal" in="SourceGraphic" in2="effect5_dropShadow_0_1" result="shape"/>
</filter>
<linearGradient id="paint0_linear_0_1" x1="-38.1907" y1="299" x2="303.501" y2="244.224" gradientUnits="userSpaceOnUse">
<stop stop-color="#0071F5"/>
<stop offset="0.703125" stop-color="#3D95FC"/>
<stop offset="1" stop-color="#56A4FF"/>
</linearGradient>
<clipPath id="clip0_0_1">
<rect width="320" height="568" fill="white" transform="translate(-99 -269)"/>
</clipPath>
</defs>
</svg>
