<svg width="349" height="253" viewBox="0 0 349 253" fill="none" xmlns="http://www.w3.org/2000/svg">
<g clip-path="url(#clip0_153_49)">
<path d="M260.915 2.63685C260.915 2.63685 286.169 -6.75658 301.945 11.6861C310.992 22.2537 368.836 132.49 368.147 142.141C367.459 151.793 361.94 156.616 361.94 156.616C361.94 156.616 364.355 148.174 362.543 143.776C362.543 143.776 363.707 158.641 354.528 164.972C349.744 168.272 230.664 161.809 220.32 147.395C197.821 116.046 246.956 99.8305 245.746 65.9666C245.048 46.3294 225.748 4.61574 260.915 2.63179V2.63685Z" fill="#545454"/>
<path d="M236.85 72.8446L238.541 73.1837C246.075 74.7071 253.487 69.7877 255.011 62.2568L256.798 53.415C258.322 45.8841 253.401 38.4746 245.867 36.9512L244.176 36.6121C236.643 35.0887 229.231 40.0081 227.707 47.5391L225.92 56.3808C224.396 63.9118 229.317 71.3212 236.85 72.8446Z" fill="#BDBDBD"/>
<path d="M128.813 252.772H207.819C221.221 231.505 233.002 202.794 235.746 180.434C237.053 169.826 236.324 160.65 232.78 154.379C221.742 134.894 239.25 112.018 239.25 112.018C239.25 112.018 215.151 118.835 209.546 138.7C203.835 158.934 188.515 226.242 188.515 226.242L129.851 238.303C127.096 245.201 128.818 252.772 128.818 252.772H128.813Z" fill="#DEDEDE"/>
<path d="M128.812 252.772H207.819C221.221 231.505 233.002 202.794 235.746 180.434L224.025 176.845C224.025 176.845 209.196 244.507 200.574 245.54C191.957 246.572 128.807 252.772 128.807 252.772H128.812Z" fill="#BDBDBD"/>
<path d="M227.58 144.039C233.636 149.338 241.453 154.03 251.533 157.583C289.302 170.919 307.868 139.833 315.994 117.969C311.048 114.346 306.147 113.116 303.312 112.448C300.547 111.8 297.621 111.248 295.196 110.854C291.216 107.027 286.27 92.6487 287.232 71.2959L285.353 71.5793L253.842 76.4886C253.842 76.4886 254.146 86.3578 253.791 95.6196C253.508 102.862 252.819 109.74 251.265 111.264C248.819 111.512 247.351 111.689 247.351 111.689C247.351 111.689 247.351 111.699 247.331 111.714C246.845 112.342 236.329 125.915 227.58 144.034V144.039Z" fill="#FFB27D"/>
<path d="M253.831 76.4987C253.831 76.4987 254.14 86.3629 253.781 95.6247C271.293 95.8474 281.191 80.2743 285.343 71.5844L253.831 76.4937V76.4987Z" fill="#ED985F"/>
<path d="M212.559 176.845C212.645 177.524 221.065 204.894 221.156 205.582C224.077 228.494 229.368 252.944 229.368 252.944L240.936 252.924L317.29 252.772C317.29 252.772 308.081 224.987 332.378 182.392C333.173 180.996 334.008 179.584 334.874 178.156C338.332 172.473 316.5 111.729 316.5 111.729C316.5 111.729 306.942 110.039 293.53 108.961C292.264 110.12 282.949 144.186 266.089 145.224C244.081 146.58 252.424 108.622 252.424 108.622C243.463 110.418 240.228 111.076 228.72 116.588C228.72 116.588 212.093 173.105 212.559 176.845Z" fill="#DEDEDE"/>
<path d="M248.075 85.5227C248.075 85.5227 289.464 87.2587 290.147 61.4723C290.831 35.691 296.633 18.549 270.235 16.3474C243.837 14.1509 238.44 23.853 236.116 32.4013C233.792 40.9495 237.321 84.4042 248.07 85.5176L248.075 85.5227Z" fill="#FFB27D"/>
<path d="M257.076 71.7008C257.076 71.7008 256.621 74.7678 249.811 74.8336C249.811 74.8336 244.095 74.8944 244.059 71.5641C244.059 71.5641 249.431 68.7755 257.071 71.7008H257.076Z" fill="white"/>
<path d="M254.196 81.9698C278.143 75.9977 285.272 54.1236 285.343 53.9059L282.877 53.1316L284.112 53.5213L282.882 53.1316C282.816 53.3391 276.078 73.8518 253.573 79.4646C253.421 79.5 253.274 79.5405 253.122 79.5759L253.72 82.0913C253.882 82.0508 254.044 82.0154 254.201 81.9749L254.196 81.9698Z" fill="#545454"/>
<path d="M251.426 83.5438L253.684 82.982C254.834 82.6935 255.543 81.5193 255.254 80.3705C254.965 79.2216 253.791 78.513 252.641 78.8015L250.383 79.3633C249.234 79.6518 248.525 80.826 248.814 81.9748C249.102 83.1237 250.277 83.8323 251.426 83.5438Z" fill="#545454"/>
<path d="M271.526 0.308748C271.526 0.308748 244.875 -3.85149 233.848 18.3314C225.453 35.2152 232.455 45.7575 235.746 48.9865C235.746 48.9865 240.1 24.7337 248.247 22.6687C248.247 22.6687 253.497 21.0644 257.076 25.2297C260.656 29.3899 265.835 47.949 271.784 50.7934C271.784 50.7934 290.254 55.3534 291.16 48.9106C292.066 42.4678 291.56 22.4157 286.907 19.1816C282.254 15.9527 271.531 0.313809 271.531 0.313809L271.526 0.308748Z" fill="#545454"/>
<path d="M279.94 72.8446L281.631 73.1837C289.165 74.7071 296.577 69.7877 298.101 62.2567L299.888 53.4149C301.412 45.884 296.491 38.4745 288.957 36.9511L287.266 36.612C279.733 35.0887 272.321 40.0081 270.797 47.539L269.009 56.3808C267.485 63.9117 272.407 71.3212 279.94 72.8446Z" fill="#BDBDBD"/>
<path d="M293.109 41.0001C294.243 39.1629 295.904 24.3692 291.378 12.587C289.191 6.89322 285.652 3.64905 281.216 1.45759C279.612 0.662992 277.814 0.24292 275.981 0.24292L271.521 0.308714C286.203 5.89618 289.611 35.7871 288.467 38.9706C288.502 38.8744 288.548 38.7985 288.578 38.7479L293.104 41.0001H293.109Z" fill="#BDBDBD"/>
<path d="M283.92 64.1901L284.76 64.3622C288.517 65.1214 292.207 62.6718 292.967 58.9164L293.858 54.5082C294.617 50.7529 292.167 47.0633 288.41 46.3041L287.565 46.1321C283.813 45.3729 280.117 47.8225 279.358 51.5778L278.467 55.981C277.707 59.7363 280.158 63.4259 283.914 64.185L283.92 64.1901Z" fill="#DEDEDE"/>
<path d="M317.289 252.772C317.289 252.772 308.08 224.987 332.377 182.392L323.324 171.091C323.324 171.091 307.3 216.459 287.277 229.689C267.293 242.888 243.776 240.13 240.936 252.924L317.289 252.772Z" fill="#BDBDBD"/>
<path d="M316.5 111.729C316.5 111.729 332.975 113.161 344.012 132.647C355.044 152.132 375.989 224.946 375.989 252.772H287.808C287.808 252.772 286.082 245.196 288.841 238.303L343.409 227.775C343.409 227.775 310.561 179.017 310.217 157.993C309.873 136.969 316.495 111.729 316.495 111.729H316.5Z" fill="#DEDEDE"/>
<path d="M287.277 243.814C287.277 243.814 270.093 242.134 267.253 242.908C264.408 243.683 256.261 247.043 254.454 248.207C252.641 249.371 249.153 252.767 249.153 252.767C249.153 252.767 251.35 253.182 252.646 252.894C253.938 252.605 257.816 252.347 258.854 252.261C259.886 252.175 263.593 252.939 263.593 252.939H290.229L287.282 243.814H287.277Z" fill="#FFB27D"/>
<path d="M131.684 252.939H216.376C216.376 249.214 213.353 246.188 209.627 246.188H131.689V252.939H131.684Z" fill="#0059C2"/>
<path d="M0.989685 160.731L32.3949 252.939H164.183L131.927 160.731H0.989685Z" fill="#0059C2"/>
<path d="M0.989761 160.731L32.1064 252.084L32.395 252.939H162.259L130.003 160.731H0.989761Z" fill="#0071F5"/>
<path d="M69.6575 205.982C70.4727 209.505 73.9863 212.359 77.5101 212.359C81.0339 212.359 83.2312 209.505 82.4161 205.982C81.601 202.46 78.0873 199.605 74.5635 199.605C71.0397 199.605 68.8424 202.46 69.6575 205.982Z" fill="white"/>
<path d="M0.989334 160.731L32.106 252.084H91.7725L19.0234 160.731H0.989334Z" fill="#4999F5"/>
</g>
<defs>
<clipPath id="clip0_153_49">
<rect width="375" height="253" fill="white" transform="matrix(-1 0 0 1 375.989 0)"/>
</clipPath>
</defs>
</svg>
